<svg width="32" height="32" viewBox="0 0 32 32" fill="none" xmlns="http://www.w3.org/2000/svg">
<rect width="32" height="32" rx="16" fill="#FF5722"/>
<g clip-path="url(#clip0_1830_54130)">
<path d="M20.986 16.2331C19.9393 13.5131 16.2127 13.3664 17.1127 9.4131C17.1793 9.11977 16.866 8.8931 16.6127 9.04643C14.1927 10.4731 12.4527 13.3331 13.9127 17.0798C14.0327 17.3864 13.6727 17.6731 13.4127 17.4731C12.206 16.5598 12.0793 15.2464 12.186 14.3064C12.226 13.9598 11.7727 13.7931 11.5793 14.0798C11.126 14.7731 10.666 15.8931 10.666 17.5798C10.9193 21.3131 14.0727 22.4598 15.206 22.6064C16.826 22.8131 18.5793 22.5131 19.8393 21.3598C21.226 20.0731 21.7327 18.0198 20.986 16.2331ZM14.7993 19.5864C15.7593 19.3531 16.2527 18.6598 16.386 18.0464C16.606 17.0931 15.746 16.1598 16.326 14.6531C16.546 15.8998 18.506 16.6798 18.506 18.0398C18.5593 19.7264 16.7327 21.1731 14.7993 19.5864Z" fill="white"/>
</g>
<defs>
<clipPath id="clip0_1830_54130">
<rect width="16" height="16" fill="white" transform="translate(8 8)"/>
</clipPath>
</defs>
</svg>
