<svg width="32" height="32" viewBox="0 0 32 32" fill="none" xmlns="http://www.w3.org/2000/svg">
<rect width="32" height="32" rx="16" fill="#FFC107"/>
<g clip-path="url(#clip0_1830_54139)">
<path d="M22.274 15.7197L16.274 9.71967C16.034 9.47967 15.7007 9.33301 15.334 9.33301H10.6673C9.93398 9.33301 9.33398 9.93301 9.33398 10.6663V15.333C9.33398 15.6997 9.48065 16.033 9.72732 16.2797L15.7273 22.2797C15.9673 22.5197 16.3007 22.6663 16.6673 22.6663C17.034 22.6663 17.3673 22.5197 17.6073 22.273L22.274 17.6063C22.5207 17.3663 22.6673 17.033 22.6673 16.6663C22.6673 16.2997 22.514 15.9597 22.274 15.7197ZM16.6673 21.3397L10.6673 15.333V10.6663H15.334V10.6597L21.334 16.6597L16.6673 21.3397Z" fill="white"/>
<path d="M12.334 13.333C12.8863 13.333 13.334 12.8853 13.334 12.333C13.334 11.7807 12.8863 11.333 12.334 11.333C11.7817 11.333 11.334 11.7807 11.334 12.333C11.334 12.8853 11.7817 13.333 12.334 13.333Z" fill="white"/>
</g>
<defs>
<clipPath id="clip0_1830_54139">
<rect width="16" height="16" fill="white" transform="translate(8 8)"/>
</clipPath>
</defs>
</svg>
