
<svg width="134" height="32" viewBox="0 0 134 32" fill="none" xmlns="http://www.w3.org/2000/svg">
<path d="M131.054 0.295711C131.054 0.295711 112.032 -2.1751 106.785 7.86077L106.795 7.80686C108.027 -0.532496 92.2318 0.0150374 92.2318 0.0150374C80.4282 0.0571554 75.2906 4.05836 75.2906 4.05836C66.1619 10.5024 65.9497 20.7792 65.9497 20.7792C65.8223 23.1378 66.6008 25.2858 66.6008 25.2858C64.6477 25.2295 57.7693 25.5948 57.7693 25.5948C52.8159 25.679 50.2965 25.0894 50.2965 25.0894C46.2772 24.247 46.3336 21.4393 46.3336 21.4393C46.0506 14.7284 49.6454 10.685 49.6454 10.685C53.3251 5.65884 62.0434 5.91155 62.0434 5.91155C65.4683 5.91155 69.5447 6.3607 69.5447 6.3607C71.2431 6.64137 70.8185 4.81648 70.8185 4.81648L70.507 2.40161C70.1966 0.337829 67.0821 0.155206 67.0821 0.155206C60.5434 -0.406479 54.4293 0.772824 54.4293 0.772824C44.4372 2.71025 40.6444 9.99666 40.6444 9.99666C42.9797 0.0989363 29.0106 0.0989364 29.0106 0.0989364C22.939 -0.238007 14.15 0.393762 14.15 0.393762C9.98899 0.688588 9.43702 3.00508 9.43702 3.00508L8.58784 5.70062C8.58784 5.70062 8.16325 6.66934 9.64931 6.54298C9.64931 6.54298 18.5657 5.61639 23.3636 5.61639C23.3636 5.61639 32.3224 4.90038 32.1101 9.36489C32.1101 9.36489 32.1526 11.3444 30.157 11.555L14.4472 13.8715C14.4472 13.8715 0.18095 15.6826 0.0111141 24.3589C0.0111141 24.3589 -0.710689 30.4239 9.47948 31.4768C9.47948 31.4768 14.8718 31.9822 20.5613 31.7716C20.5613 31.7716 29.5905 31.3023 32.0106 30.502C32.0106 30.502 34.4807 29.9862 35.1472 28.0033L37.2905 21.0316C37.2905 21.0316 36.1159 31.4347 50.3536 31.7716C50.3536 31.7716 58.5339 31.9118 62.2989 31.4627C62.2989 31.4627 66.3182 31.3508 66.8844 29.0481L67.3657 26.8017C67.3657 26.8017 70.5359 32.0243 81.1082 31.9822C81.1082 31.9822 89.133 32.1086 93.5912 31.6874C93.5912 31.6874 97.1924 31.495 97.8371 29.3288L98.8136 26.4227C98.8136 26.4227 99.3106 25.3269 97.5823 25.4961C97.5823 25.4961 89.048 26.0436 85.3966 26.0436C85.3966 26.0436 82.4669 26.0436 80.4289 25.8751C80.4289 25.8751 74.1874 25.6645 74.8243 20.7367L88.6235 18.9678C88.6235 18.9678 101.276 17.9148 105.267 12.0604L99.7902 30.1712C99.7902 30.1712 99.2284 31.5931 100.937 31.5611H107.772C107.772 31.5611 109.089 31.4768 109.428 30.129L115.033 10.5442C115.033 10.5442 115.755 6.20604 122.124 6.24816C122.124 6.24816 127.261 6.1218 130.87 6.41663C130.87 6.41663 132.65 6.59521 132.993 5.65851L133.885 3.00508C133.884 3.00508 134.876 0.651861 131.054 0.295711ZM27.0602 25.6504C27.0602 25.6504 23.8439 26.0786 18.0834 26.0786C18.0834 26.0786 9.20298 26.3647 9.15475 22.841C9.15475 22.841 9.15475 19.1268 14.4832 18.5079L29.9403 16.5078L27.0602 25.6504ZM97.6241 9.65971C96.3928 12.6501 88.1982 13.5767 88.1982 13.5767L75.9275 15.1772C76.0549 13.2819 78.1779 9.78607 78.1779 9.78607C80.6829 5.36368 87.6038 5.36368 87.6038 5.36368C91.6798 5.15309 94.4397 5.74274 94.4397 5.74274C99.3224 6.5851 97.6241 9.65971 97.6241 9.65971Z" fill="#84B819"/>
</svg>
