<svg width="32" height="32" viewBox="0 0 32 32" fill="none" xmlns="http://www.w3.org/2000/svg">
<path d="M16 32C15.841 32 15.6826 31.9971 15.5245 31.9925L18.7944 23.006H23.2944C24.0842 23.006 24.9513 22.3988 25.2214 21.657L28.769 11.9129C29.3493 10.3175 28.4356 9.01235 26.738 9.01235H20.4951L15.257 23.4061H15.255L12.2855 31.5656C5.2403 29.8907 0 23.5576 0 16C0 8.66035 4.9423 2.47562 11.6802 0.590665L8.61615 9.01235H8.61526L3.52141 23.006L6.91237 23.0063L11.2443 11.1152H13.7927L9.46082 23.0063L12.8505 23.0069L16.8874 11.9129C17.4681 10.3175 16.5543 9.01235 14.8583 9.01235H12.0079L15.2809 0.0168148C15.5195 0.00622221 15.759 0 16 0C24.8366 0 32 7.16339 32 16C32 24.8365 24.8366 32 16 32ZM25.6809 11.1066H23.1331L19.5652 20.8961H22.113L25.6809 11.1066Z" fill="#4987CE"/>
</svg>
