<svg width="147" height="32" viewBox="0 0 147 32" fill="none" xmlns="http://www.w3.org/2000/svg">
<path d="M79.959 10.5597H83.2462V19.657C83.2462 24.2747 80.6882 26.9233 76.2319 26.9233C71.8219 26.9233 69.2871 24.3208 69.2871 19.7836V10.5712H72.5743V19.68C72.5743 22.3746 73.9054 23.8141 76.2782 23.8141C78.651 23.8141 79.959 22.4092 79.959 19.7952V10.5597ZM61.4394 17.0545H54.0084V10.5597H50.7211V26.6814H54.0084V20.1291H61.4278V26.6814H64.715V10.5597H61.4278V17.0545H61.4394ZM143.759 10.5597V26.6584H147V10.5597H143.759ZM130.853 19.7376H136.837V16.8011H130.853V13.4962H139.534V10.5712H127.612V26.6699H139.847V23.7335H130.853V19.7376ZM117.959 21.6376L114.278 10.5482H111.593L107.912 21.6376L104.335 10.5597H100.84L106.488 26.6699H109.208L112.889 16.0872L116.57 26.6699H119.313L124.95 10.5597H121.536L117.959 21.6376ZM94.9946 10.6518L102.067 26.6699H98.6175L97.1591 23.3189H89.7397L89.6355 23.5492L88.2697 26.6699H84.913L92.0546 10.5597H94.9252L94.9946 10.6518ZM95.7817 20.0255L93.4436 14.6247L91.1171 20.0255L90.955 20.394H95.9322L95.7817 20.0255Z" fill="#24272A"/>
<path d="M18.3581 24.9657C18.4044 24.9311 18.4159 24.862 18.3928 24.8044C15.2011 17.9796 11.2195 11.5487 6.52866 5.64261C6.52866 5.64261 2.80159 9.16636 3.06781 12.7016C3.13017 13.5167 3.35343 14.3115 3.72484 15.0406C4.09624 15.7697 4.60849 16.4189 5.23229 16.9508C8.48479 20.1061 16.3556 24.0905 18.1844 25.0002C18.2423 25.0232 18.3118 25.0117 18.3581 24.9657ZM17.1427 27.6603C17.1196 27.5912 17.0501 27.5451 16.9691 27.5451L3.86647 27.9942C5.29016 30.5161 7.68614 32.4738 10.1747 31.875C11.8993 31.4489 15.7885 28.7427 17.0733 27.8215C17.1774 27.7409 17.1427 27.6718 17.1427 27.6603ZM17.3395 26.4972C17.4089 26.3936 17.2932 26.3015 17.2932 26.3015C11.5405 22.4322 0.382463 16.4902 0.382463 16.4902C0.0126244 17.618 -0.0908356 18.8154 0.0801234 19.9895C0.251082 21.1635 0.691856 22.2825 1.36819 23.2595C2.04452 24.2365 2.93819 25.0452 3.97974 25.6227C5.02129 26.2002 6.18267 26.531 7.37362 26.5893C7.57039 26.6239 15.1634 26.5893 17.2006 26.5778C17.2585 26.5663 17.3048 26.5433 17.3395 26.4972ZM18.2076 0.0115155C17.6404 0.0575776 16.101 0.414559 16.101 0.414559C12.6286 1.30125 11.8068 4.44499 11.8068 4.44499C11.1701 6.41415 11.8183 8.59058 11.8183 8.59058C12.9758 13.7035 18.6706 22.1213 19.8975 23.8832C19.9785 23.9753 20.048 23.9408 20.048 23.9408C20.1174 23.9177 20.1753 23.8602 20.1753 23.7796C22.0736 4.98622 18.2076 0.0115155 18.2076 0.0115155ZM22.5481 23.9177C22.6176 23.9408 22.6986 23.9177 22.7333 23.8486C23.995 22.0407 29.655 13.6689 30.8125 8.57906C30.8125 8.57906 31.4375 6.11474 30.8357 4.43348C30.8357 4.43348 29.9791 1.24368 26.5067 0.403043C26.5067 0.403043 25.5113 0.149702 24.4464 0C24.4464 0 20.5573 4.97471 22.4555 23.768C22.444 23.8371 22.4903 23.8947 22.5481 23.9177ZM25.6502 27.5566C25.6193 27.5628 25.5901 27.5752 25.5642 27.593C25.5383 27.6109 25.5164 27.6337 25.4997 27.6603C25.4881 27.7294 25.4997 27.787 25.546 27.833C26.7961 28.7312 30.6042 31.3798 32.433 31.8865C32.433 31.8865 35.8244 33.038 38.7644 28.0057L25.6502 27.5566ZM42.2599 16.4672C42.2599 16.4672 31.125 22.4207 25.3608 26.2899C25.3029 26.336 25.2682 26.4051 25.2913 26.4742C25.2913 26.4742 25.3492 26.5778 25.4302 26.5778C27.4906 26.5778 35.2919 26.5893 35.5003 26.5548C36.2758 26.4972 37.0397 26.3245 37.7574 26.0366C37.7574 26.0366 40.5353 25.1614 41.9706 22.0177C41.9706 22.0177 43.2554 19.4612 42.2599 16.4672ZM24.3075 24.9657C24.3538 25.0002 24.4232 25.0117 24.4811 24.9772C26.3562 24.0444 34.1692 20.0946 37.3985 16.9508C37.3985 16.9508 39.4473 15.3156 39.5515 12.6786C39.7829 9.02817 36.0906 5.64261 36.0906 5.64261C36.0906 5.64261 29.2615 13.8762 24.2496 24.7584C24.2416 24.795 24.2426 24.833 24.2527 24.8691C24.2628 24.9053 24.2816 24.9384 24.3075 24.9657Z" fill="#CE0E2D"/>
</svg>
