<svg width="50" height="32" viewBox="0 0 50 32" fill="none" xmlns="http://www.w3.org/2000/svg">
<path d="M49.4741 0H42.6976C42.4074 0 42.1725 0.231178 42.1725 0.516023V31.4848C42.1725 31.7672 42.4074 31.9983 42.6976 31.9983H49.4741C49.7618 31.9983 50 31.7672 50 31.4848V0.516023C50 0.231178 49.7618 0 49.4741 0Z" fill="#FF6700"/>
<path d="M26.3362 0H0.523435C0.233283 0 0 0.231178 0 0.516023V31.4848C0 31.7672 0.233283 31.9983 0.523435 31.9983H7.30162C7.59013 31.9983 7.82918 31.7672 7.82918 31.4848V7.17889C7.82918 6.89817 8.06242 6.66536 8.35257 6.66536H22.9533C27.0591 6.66536 28.2247 9.81516 28.2247 11.8471V31.4848C28.2247 31.7672 28.4604 31.9983 28.7506 31.9983H35.5246C35.8131 31.9983 36.0497 31.7672 36.0497 31.4848V9.51545C36.0497 7.70318 35.8321 5.09748 33.4977 2.80386C31.0553 0.409512 28.8272 0 26.3362 0Z" fill="#FF6700"/>
<path d="M21.5883 12.335H14.4721C14.182 12.335 13.9438 12.5662 13.9438 12.8494V31.4873C13.9438 31.7688 14.182 32 14.4721 32H21.5883C21.8759 32 22.1117 31.7688 22.1117 31.4873V12.8494C22.1117 12.5662 21.8759 12.335 21.5883 12.335Z" fill="#FF6700"/>
</svg>
