<svg width="40" height="40" viewBox="0 0 40 40" fill="none" xmlns="http://www.w3.org/2000/svg">
    <path d="M39.75 20C39.75 30.9076 30.9076 39.75 20 39.75C9.09238 39.75 0.25 30.9076 0.25 20C0.25 9.09238 9.09238 0.25 20 0.25C30.9076 0.25 39.75 9.09238 39.75 20Z" fill="#F37421"/>
    <path d="M34.9987 19.9997C34.9987 28.2839 28.2829 34.9996 19.9987 34.9996C11.7144 34.9996 4.99866 28.2839 4.99866 19.9997C4.99866 11.7154 11.7144 4.99965 19.9987 4.99965C28.2829 4.99965 34.9987 11.7154 34.9987 19.9997Z" fill="#00A153"/>
    <path d="M15.8838 13.4141C16.2543 12.3268 16.8094 11.4899 17.5257 10.8941C18.2418 10.2981 19.0649 9.99965 19.9939 9.99965C20.9229 9.99965 21.7458 10.2932 22.4623 10.8804C23.1788 11.4677 23.7284 12.3119 24.1039 13.4141L28.1668 25.3376C28.3859 25.9805 28.6777 26.6516 28.7257 27.0993C29.0194 29.8259 26.4252 30.7256 24.8535 29.3891C24.3969 29.0006 24.0907 28.4396 23.8378 27.7498L23.4608 26.7211H16.4334L16.0329 27.7498C15.7738 28.4159 15.4695 28.9788 15.0054 29.3756C14.3563 29.9309 13.4454 30.1474 12.6724 29.8345C11.8518 29.5023 11.2487 28.631 11.2487 27.4489C11.2487 26.5909 11.6016 25.9819 11.8212 25.3376L15.8838 13.4141ZM19.7355 16.4094L18.1283 21.1404C18.113 21.185 18.0825 21.2643 18.0519 21.3583C18.0182 21.4621 18.0787 21.5959 18.2463 21.5959C19.3919 21.5959 20.459 21.596 21.6049 21.596C21.8225 21.596 22.0167 21.5619 21.9139 21.2791L21.8622 21.1366L20.2463 16.5288L20.1774 16.3401C20.175 16.3334 20.1719 16.3265 20.1697 16.3209C20.0883 16.1216 20.0273 16.1119 19.9708 16.1111C19.8819 16.1095 19.8193 16.1625 19.7355 16.4094Z" fill="white"/>
</svg>
