<svg width="36" height="38" viewBox="0 0 36 38" fill="none" xmlns="http://www.w3.org/2000/svg">
<path d="M0.0165414 7.8187C-0.141252 6.09359 0.841146 4.46692 2.48171 3.84931C6.33221 2.39973 13.4011 0 18 0C22.5989 0 29.6678 2.39973 33.5183 3.84931C35.1589 4.46692 36.1413 6.0936 35.9835 7.81871L35.0625 17.8875C34.6975 21.8776 33.6503 25.8252 31.2596 29.064C28.2916 33.085 23.5321 38 18 38C12.4679 38 7.70843 33.0849 4.74039 29.064C2.34971 25.8252 1.3025 21.8776 0.937525 17.8875L0.0165414 7.8187Z" fill="#00A153"/>
<path fill-rule="evenodd" clip-rule="evenodd" d="M31.9377 7.53582C30.0858 6.84168 27.5422 5.95109 24.9447 5.23244C22.2058 4.47468 19.7255 4 18 4C16.2745 4 13.7942 4.47468 11.0553 5.23244C8.45775 5.95109 5.91418 6.84168 4.06226 7.53582L4.97624 17.5281C5.30474 21.1194 6.21862 24.271 8.01861 26.7095C9.38289 28.5578 11.0595 30.469 12.9013 31.8847C14.7607 33.3141 16.4721 34 18 34C19.5278 34 21.2393 33.3141 23.0987 31.8848C24.9405 30.469 26.6171 28.5578 27.9814 26.7095C29.7814 24.271 30.6953 21.1194 31.0238 17.5281L31.9377 7.53582ZM2.48171 3.84931C0.841146 4.46692 -0.141252 6.09359 0.0165414 7.8187L0.937525 17.8875C1.3025 21.8776 2.34971 25.8252 4.74039 29.064C7.70843 33.0849 12.4679 38 18 38C23.5321 38 28.2916 33.085 31.2596 29.064C33.6503 25.8252 34.6975 21.8776 35.0625 17.8875L35.9835 7.81871C36.1413 6.0936 35.1589 4.46692 33.5183 3.84931C29.6678 2.39973 22.5989 0 18 0C13.4011 0 6.33221 2.39973 2.48171 3.84931Z" fill="#F37421"/>
<path fill-rule="evenodd" clip-rule="evenodd" d="M24.8287 14.3083C25.5389 15.0169 25.5389 16.1571 24.8287 16.8657L17.9929 23.6863C17.2494 24.4281 16.0528 24.4817 15.2442 23.8094L11.2853 20.5176C10.5121 19.8747 10.4073 18.7378 11.0503 17.9679C11.7036 17.1856 12.8788 17.0802 13.6645 17.7335L16.4512 20.0505L22.2063 14.3083C22.928 13.5882 24.107 13.5882 24.8287 14.3083Z" fill="white"/>
</svg>
