<svg width="42" height="38" viewBox="0 0 42 38" fill="none" xmlns="http://www.w3.org/2000/svg">
<path d="M6.38174 0C4.36335 0 2.72713 1.70132 2.72713 3.8V34.9961C2.72713 37 3.81818 38 5.25 38C6.68182 38 4.77273 38 7.63636 38H10.0227C10.5 38 10.4454 38 11.4545 38H12.4091C13.4183 38 12.8864 38 14.3182 38C15.75 38 15.2727 38 15.2727 38C17.1818 38 16.2408 38 18.2592 38H35.6186C37.637 38 39 37.0948 39 34.9961L39.2732 3.8C39.2732 1.70132 37.637 0 35.6186 0H6.38174Z" fill="#00A153"/>
<path d="M0.0804498 10.5883C0.0178887 10.7827 -0.0229522 10.9882 0.0140818 11.1896C0.233024 12.3798 1.70503 13.3 3.48832 13.3C5.42261 13.3 6.99066 12.2173 6.99066 10.8818C6.99066 12.2173 8.55871 13.3 10.493 13.3C12.4273 13.3 13.9953 12.2173 13.9953 10.8818C13.9953 12.2173 15.5634 13.3 17.4977 13.3C19.432 13.3 21 12.2173 21 10.8818C21 12.2173 22.568 13.3 24.5023 13.3C26.4366 13.3 28.0047 12.2173 28.0047 10.8818C28.0047 12.2173 29.5727 13.3 31.507 13.3C33.4413 13.3 35.0093 12.2173 35.0093 10.8818C35.0093 12.2173 36.5774 13.3 38.5117 13.3C40.295 13.3 41.767 12.3798 41.9859 11.1896C42.023 10.9882 41.9821 10.7827 41.9195 10.5883L38.9291 1.29702C38.6798 0.52227 37.982 0 37.1963 0H4.80372C4.01799 0 3.32023 0.52227 3.07088 1.29702L0.0804498 10.5883Z" fill="#F37421"/>
<path fill-rule="evenodd" clip-rule="evenodd" d="M14.6046 2.85C15.1092 2.85 15.5183 3.27533 15.5183 3.8V7.6C15.5183 8.12467 15.1092 8.55 14.6046 8.55C14.1 8.55 13.691 8.12467 13.691 7.6V3.8C13.691 3.27533 14.1 2.85 14.6046 2.85Z" fill="#00A153"/>
<path fill-rule="evenodd" clip-rule="evenodd" d="M21.9138 2.85C22.4184 2.85 22.8275 3.27533 22.8275 3.8V7.6C22.8275 8.12467 22.4184 8.55 21.9138 8.55C21.4092 8.55 21.0002 8.12467 21.0002 7.6V3.8C21.0002 3.27533 21.4092 2.85 21.9138 2.85Z" fill="#00A153"/>
<path fill-rule="evenodd" clip-rule="evenodd" d="M29.2231 2.85C29.7277 2.85 30.1367 3.27533 30.1367 3.8V7.6C30.1367 8.12467 29.7277 8.55 29.2231 8.55C28.7185 8.55 28.3094 8.12467 28.3094 7.6V3.8C28.3094 3.27533 28.7185 2.85 29.2231 2.85Z" fill="#00A153"/>
<path fill-rule="evenodd" clip-rule="evenodd" d="M36.9245 8.61143C36.4217 8.65574 35.9796 8.26785 35.9369 7.74505L35.6219 3.88028C35.5793 3.35748 35.9524 2.89775 36.4552 2.85345C36.958 2.80914 37.4001 3.19703 37.4427 3.71983L37.7577 7.5846C37.8003 8.1074 37.4273 8.56712 36.9245 8.61143Z" fill="#00A153"/>
<path fill-rule="evenodd" clip-rule="evenodd" d="M6.30449 8.61143C6.80728 8.65574 7.24942 8.26785 7.29203 7.74505L7.60704 3.88028C7.64965 3.35748 7.2766 2.89775 6.7738 2.85345C6.27101 2.80914 5.82887 3.19703 5.78626 3.71983L5.47125 7.5846C5.42864 8.1074 5.80169 8.56712 6.30449 8.61143Z" fill="#00A153"/>
<path d="M26.7273 38H15.2727V25C15.2727 21.6863 17.8369 19 21 19C24.1631 19 26.7273 21.6863 26.7273 25V38Z" fill="white"/>
</svg>
