<svg width="24" height="24" viewBox="0 0 24 24" fill="none" xmlns="http://www.w3.org/2000/svg">
<rect width="24" height="24" rx="12" fill="#FF5722"/>
<path d="M17.7528 8.82257C17.6861 8.56553 17.5524 8.33081 17.3653 8.14238C17.1782 7.95395 16.9444 7.81857 16.6878 7.75007C15.1323 7.56661 13.5665 7.48394 12.0003 7.50257C10.4341 7.48394 8.86834 7.56661 7.31281 7.75007C7.05624 7.81857 6.82246 7.95395 6.63535 8.14238C6.44824 8.33081 6.3145 8.56553 6.24781 8.82257C6.07741 9.77803 5.99457 10.7471 6.00031 11.7176C5.99428 12.6931 6.07712 13.6671 6.24781 14.6276C6.31796 14.8805 6.45323 15.1105 6.64011 15.2948C6.827 15.479 7.05895 15.611 7.31281 15.6776C8.86834 15.861 10.4341 15.9437 12.0003 15.9251C13.5665 15.9437 15.1323 15.861 16.6878 15.6776C16.9417 15.611 17.1736 15.479 17.3605 15.2948C17.5474 15.1105 17.6827 14.8805 17.7528 14.6276C17.9235 13.6671 18.0063 12.6931 18.0003 11.7176C18.006 10.7471 17.9232 9.77803 17.7528 8.82257ZM10.7703 13.5101V9.94007L13.9128 11.7176L10.7703 13.5026V13.5101Z" fill="white"/>
</svg>
