<svg width="57" height="38" viewBox="0 0 57 38" fill="none" xmlns="http://www.w3.org/2000/svg">
<path d="M55.8713 6.90909C55.8713 8.18102 54.8606 9.21212 53.6139 9.21212C52.3671 9.21212 51.3564 8.18102 51.3564 6.90909C51.3564 5.63716 52.3671 4.60606 53.6139 4.60606C54.8606 4.60606 55.8713 5.63716 55.8713 6.90909Z" fill="#F37421"/>
<path d="M20.3168 32.2424C20.3168 35.4222 17.7901 38 14.6733 38C11.5564 38 9.0297 35.4222 9.0297 32.2424C9.0297 29.0626 11.5564 26.4848 14.6733 26.4848C17.7901 26.4848 20.3168 29.0626 20.3168 32.2424Z" fill="#F37421"/>
<path d="M16.9307 32.2424C16.9307 33.5144 15.92 34.5455 14.6733 34.5455C13.4265 34.5455 12.4158 33.5144 12.4158 32.2424C12.4158 30.9705 13.4265 29.9394 14.6733 29.9394C15.92 29.9394 16.9307 30.9705 16.9307 32.2424Z" fill="white"/>
<path d="M9.31188 19.0139C12.1337 15.8472 16.6098 13.8321 17.4951 13.8321C18.3803 13.8321 26.1226 13.8321 26.1226 13.8321C27.5391 13.8321 27.6535 13.8316 29.3465 13.8316L27.4223 23.3507C27.2186 24.7302 28.3056 25.9667 29.7222 25.9667H38.5572C39.3001 25.9667 39.9967 25.6153 40.4492 25.0355C42.0548 22.9781 43.2197 21.7215 44.3598 18.0285C44.4316 17.796 44.462 17.552 44.4535 17.3091L44.0649 6.27782C44.0401 5.57546 44.7561 0.81221 45.4307 0.581784C45.8707 0.431513 48.3733 -0.0421556 49.0652 0.00302406C49.9681 0.0619817 50.9255 1.24087 51.297 2.14846C51.3395 2.25226 51.367 2.36127 51.388 2.47169L55.0231 21.5789C55.0615 21.7806 55.1327 21.974 55.1962 22.169C55.3092 22.5167 55.3367 22.8878 55.2742 23.2504C55.0313 24.6606 53.5274 25.5271 52.0803 25.3931C50.7259 25.2678 49.3377 25.3483 48.307 25.6808C46.8383 26.1545 45.3877 27.7334 44.4984 30.4349C44.1562 31.4744 43.2227 32.2563 42.1123 32.2563H6.84184C5.20622 32.2563 4.11002 30.6516 4.65696 29.1879C4.71517 29.0322 4.77665 28.8812 4.82061 28.7206C5.15656 27.4935 6.80437 21.8279 9.31188 19.0139Z" fill="#00A153"/>
<path d="M46.8416 5.19528C46.8416 4.90934 47.0459 4.67208 47.3137 4.62717C47.3742 4.61703 47.4356 4.60933 47.4937 4.58934L50.7043 3.48473C50.7624 3.46474 50.8234 3.45425 50.8846 3.45101C51.531 3.41684 54.8123 3.15289 55.3069 3.45455C55.3641 3.48938 54.2012 5.11811 54.1782 5.18182C54.1568 5.24104 53.6875 9.17039 53.6216 9.72346C53.6163 9.76768 53.596 9.80147 53.5525 9.80546C53.3234 9.82645 52.5327 9.75487 52.4852 9.78788C52.0811 10.0685 52.2063 9.22559 51.9208 9.22559H47.4059C47.0943 9.22559 46.8416 8.96781 46.8416 8.64983V5.19528Z" fill="#00A153"/>
<path d="M57 32.2424C57 35.4222 54.4733 38 51.3564 38C48.2396 38 45.7129 35.4222 45.7129 32.2424C45.7129 29.0626 48.2396 26.4848 51.3564 26.4848C54.4733 26.4848 57 29.0626 57 32.2424Z" fill="#F37421"/>
<path d="M53.6454 32.2426C53.6454 33.5146 52.6347 34.5457 51.388 34.5457C50.1413 34.5457 49.1306 33.5146 49.1306 32.2426C49.1306 30.9707 50.1413 29.9396 51.388 29.9396C52.6347 29.9396 53.6454 30.9707 53.6454 32.2426Z" fill="white"/>
<path d="M0 27.7022C0 27.0411 0.544342 26.5158 1.19132 26.5524L12.4785 27.1922C13.0766 27.2261 13.5446 27.7308 13.5446 28.3419V29.234C13.5446 29.8451 13.0766 30.3498 12.4785 30.3837L1.19132 31.0235C0.544343 31.0601 0 30.5348 0 29.8737V27.7022Z" fill="#F37421"/>
<path d="M11.2871 21.303C11.2871 20.985 11.5398 20.7273 11.8515 20.7273H17.4951C17.8067 20.7273 18.0594 20.985 18.0594 21.303C18.0594 21.621 17.8067 21.8788 17.4951 21.8788H11.8515C11.5398 21.8788 11.2871 21.621 11.2871 21.303Z" fill="white"/>
<path d="M10.1584 24.7576C10.1584 24.4396 10.4111 24.1818 10.7228 24.1818H16.3663C16.678 24.1818 16.9307 24.4396 16.9307 24.7576C16.9307 25.0756 16.678 25.3333 16.3663 25.3333H10.7228C10.4111 25.3333 10.1584 25.0756 10.1584 24.7576Z" fill="white"/>
<path d="M15.599 14.8427H30.2831C31.0868 14.8427 31.7384 14.1911 31.7384 13.3873C31.7384 12.6252 31.1505 11.9922 30.3906 11.9359L14.1918 10.7359C13.4361 10.6799 12.7922 11.278 12.7922 12.0357C12.7922 13.586 14.0489 14.8427 15.599 14.8427Z" fill="#F37421"/>
</svg>
