<svg width="169" height="122" viewBox="0 0 169 122" fill="none" xmlns="http://www.w3.org/2000/svg">
<path d="M105.886 2.39066C105.886 3.74656 105.779 5.88745 105.637 7.20766L105.423 9.63401H113.018V8.59924C113.018 7.60016 112.982 7.56448 110.522 7.35039C108.382 7.1363 108.026 6.99358 108.026 6.42267C108.026 5.85177 108.347 5.74472 110.272 5.63768C112.198 5.53063 112.483 5.42359 112.59 4.78132C112.697 4.13905 112.447 3.99633 111.342 3.81792C110.593 3.6752 109.559 3.56815 109.024 3.56815C108.382 3.56815 108.026 3.38974 108.026 3.03293C108.026 2.60475 108.525 2.49771 110.343 2.49771C112.661 2.49771 112.661 2.49771 112.661 1.46294C112.661 0.214089 112.091 0 108.489 0H105.886V2.39066Z" fill="#1D428A"/>
<path d="M89.0559 3.24704C88.2714 3.56817 88.0218 3.96067 87.6653 5.56634C87.4157 6.63678 87.0591 7.49314 86.8808 7.49314C86.6669 7.49314 85.8111 7.10064 84.9909 6.6011C83.529 5.74475 83.3864 5.70906 82.3523 6.24429C81.7818 6.52974 81.2826 6.92224 81.2826 7.10064C81.2826 7.42178 84.4561 15.0576 84.7057 15.3074C84.8127 15.4501 86.9878 14.6294 86.9878 14.451C86.9878 14.3797 86.5242 13.2735 85.918 11.9533C85.3475 10.6331 84.8483 9.4913 84.8483 9.38426C84.8483 9.27722 85.5971 9.63403 86.4886 10.1693C87.38 10.7045 88.2358 11.0256 88.3428 10.8829C88.4854 10.7758 88.842 9.84812 89.1272 8.84904L89.6621 7.02928L90.6962 9.56267C91.7659 12.2031 92.2651 12.5956 93.5131 11.6679C94.0836 11.2754 94.0123 10.9186 92.3721 7.13632C91.4093 4.88839 90.4822 3.03295 90.3039 2.99727C90.1613 2.96159 89.5908 3.06863 89.0559 3.24704Z" fill="#1D428A"/>
<path d="M130.704 6.81517C128.778 8.31379 128.101 11.3824 129.242 13.5233C129.848 14.7365 132.344 16.0567 134.02 16.0567C137.729 16.0567 140.118 11.0256 137.764 8.20675C137.229 7.60016 136.374 6.88653 135.803 6.60108C134.305 5.81609 131.845 5.92313 130.704 6.81517ZM135.268 8.95606C136.766 10.1335 136.516 12.4885 134.733 13.3806C133.521 14.0228 132.273 13.666 131.417 12.4172C130.597 11.2397 130.704 10.419 131.881 9.24151C133.129 8.02834 133.984 7.95698 135.268 8.95606Z" fill="#1D428A"/>
<path d="M74.9712 10.9186C73.5449 11.989 72.3682 13.0238 72.3682 13.2022C72.3682 13.3806 73.5806 15.129 75.0425 17.1272L77.7168 20.731L80.5694 18.5544C82.1384 17.3412 83.422 16.2708 83.422 16.0924C83.422 15.9497 83.1011 15.5215 82.7089 15.1647C82.0314 14.5581 81.9601 14.5938 80.0702 15.9854C78.3943 17.2342 78.1091 17.3769 77.8951 16.8417C77.6812 16.2351 78.0021 15.8783 80.1059 14.344C80.926 13.7374 80.9616 13.5947 80.5338 12.9167C79.8919 11.882 79.571 11.9177 77.7881 13.2379C76.4688 14.2013 75.5774 14.344 75.5774 13.6304C75.5774 13.4876 76.3975 12.7383 77.3602 12.0247C79.1075 10.7045 79.1431 10.6688 78.5726 9.81245C78.2517 9.31291 77.8951 8.92041 77.7525 8.92041C77.6455 8.92041 76.3618 9.81245 74.9712 10.9186Z" fill="#1D428A"/>
<path d="M139.975 14.8078C138.477 16.6633 137.265 18.3046 137.265 18.483C137.265 18.6971 137.657 19.0896 138.156 19.4107C138.976 19.946 139.048 19.946 140.01 18.7328L140.973 17.5196L142.471 18.7685C144.254 20.1957 144.575 20.2671 145.145 19.1966C145.537 18.483 145.43 18.2689 144.004 17.0558C142.613 15.8426 142.507 15.6642 143.006 15.1646C143.505 14.6651 143.719 14.7365 145.216 15.9139C146.857 17.1985 146.928 17.1985 147.606 16.5919C147.998 16.2351 148.319 15.8426 148.319 15.6999C148.319 15.343 143.469 11.4181 143.041 11.4181C142.827 11.4181 141.472 12.9524 139.975 14.8078Z" fill="#1D428A"/>
<path d="M68.0894 16.6632C67.5546 17.3769 67.3763 17.9478 67.5189 18.6257C67.6259 19.1966 67.8398 20.0887 67.9468 20.6952L68.1964 21.7657H66.0569C64.2384 21.7657 63.8105 21.9084 63.0974 22.6577C62.5982 23.1929 62.3842 23.6925 62.5982 23.8352C62.7764 24.0136 64.4167 25.4052 66.2709 26.9395L69.6227 29.7583L70.2645 28.9377C70.6567 28.4738 70.942 27.9743 70.942 27.8315C70.942 27.6888 69.9436 26.7254 68.7312 25.7263L66.5205 23.8352L68.5173 24.085C70.8707 24.3704 71.1203 24.1207 70.5854 22.0868C70.3715 21.3018 70.2645 20.5525 70.3715 20.4455C70.4785 20.3384 71.4412 21.0164 72.5466 21.9441C74.4721 23.5854 74.5434 23.6211 75.2209 23.0145C75.6131 22.6577 75.9341 22.1582 75.9341 21.9441C75.9341 21.5873 73.2598 19.1609 69.6583 16.3064C68.8739 15.6998 68.8382 15.7355 68.0894 16.6632Z" fill="#1D428A"/>
<path d="M43.664 21.0878C42.9508 21.73 39.3494 26.7254 35.7123 32.2204C32.0753 37.6797 28.8661 42.2469 28.5808 42.3896C28.2956 42.4967 22.8756 41.1051 16.5999 39.321C10.2885 37.5013 4.65464 36.0383 4.0128 36.0383C2.40822 36.0383 1.08889 36.7163 0.482711 37.8581C-0.872274 40.5342 -0.0164927 41.8544 11.5722 54.4143C17.0991 60.4088 17.8123 61.3008 17.8123 62.1215C17.8123 62.4783 14.6744 67.2596 10.8234 72.6832C2.26559 84.7436 1.90901 85.4572 3.72754 87.2413C5.29647 88.8469 6.58014 88.5615 19.5951 83.6731C26.1205 81.2111 31.79 79.2129 32.2179 79.2129C32.7528 79.2129 35.641 81.9961 41.7028 88.3117C46.4809 93.3428 50.7598 97.5175 51.1877 97.6246C52.6853 98.0171 53.969 97.6246 54.5038 96.6255C55.003 95.8048 54.9317 94.663 54.0759 85.7427C52.4714 69.5433 52.3644 68.8296 51.6156 68.0803C50.8311 67.2953 50.2606 67.2596 49.3692 67.9376C48.549 68.5442 48.549 68.5085 48.9413 79.8552L49.2265 88.169L47.6932 86.4563C45.6964 84.2083 38.4223 76.2514 36.6394 74.2889C34.1791 71.6841 32.8241 71.7555 24.4089 75.1096C21.0927 76.4298 17.3131 77.8927 16.065 78.3923L13.783 79.2486L14.7814 77.8927C15.3519 77.1434 17.3487 74.61 19.2386 72.255C24.9438 65.1187 25.6926 64.0126 25.9065 62.4783C26.1918 60.4801 25.2647 59.0529 19.2742 52.4518C16.5286 49.4189 14.4248 46.8855 14.6031 46.8141C14.7814 46.7428 17.9549 47.5991 21.6276 48.6696C29.2227 50.9175 31.2551 51.1316 33.145 49.8471C33.9295 49.3475 35.855 46.7071 38.5649 42.461C40.9183 38.8215 42.9151 35.7529 43.0934 35.5745C43.2361 35.4317 43.557 39.0356 43.8066 43.5671C44.0562 48.0987 44.4128 52.3091 44.6267 52.9157C45.5538 55.6631 48.4777 57.3759 55.9301 59.5524C59.9594 60.6942 69.373 62.6924 69.6226 62.4426C69.6939 62.3356 69.8722 60.4801 69.9435 58.3036L70.1218 54.3072L65.8073 53.5223C61.564 52.7373 55.6449 51.0602 53.7907 50.0968C53.2915 49.8471 52.6853 49.1691 52.4714 48.6339C52.2574 48.0987 51.6512 43.0676 51.1877 37.4656C50.6885 31.8636 50.1893 26.2259 50.0466 24.87C49.7257 21.4803 48.8343 20.1957 46.6235 20.053C45.1972 19.946 44.805 20.0887 43.664 21.0878Z" fill="#1D428A"/>
<path d="M151.706 20.6953C151.064 21.4089 151.064 21.4446 151.777 22.4437L152.526 23.4428L150.03 25.3696C148.64 26.44 147.356 27.4034 147.142 27.5104C146.821 27.7602 147.819 29.6157 148.283 29.6157C148.426 29.6157 149.674 28.7236 151.064 27.6532C152.455 26.5827 153.774 25.6907 153.953 25.6907C154.166 25.6907 154.63 26.1189 155.022 26.6541C155.735 27.6175 155.735 27.6175 156.484 26.9752C156.912 26.5827 157.233 26.1902 157.233 26.0475C157.233 25.7264 152.99 20.1957 152.633 20.053C152.491 20.0173 152.063 20.3028 151.706 20.6953Z" fill="#1D428A"/>
<path d="M104.995 24.2991C92.0155 26.0475 81.7462 34.2899 77.3246 46.4216C73.6876 56.4125 74.2224 68.6512 78.644 77.5359C84.5988 89.4179 96.1161 95.9833 111.057 95.9833C121.148 95.9833 130.205 93.0574 135.66 88.062C136.944 86.8845 138.406 85.2431 138.905 84.3868C141.437 80.0336 139.654 75.395 134.805 73.6823C133.949 73.3969 133.129 73.1471 132.95 73.1471C132.808 73.1471 131.809 74.2889 130.775 75.6805C126.568 81.3538 121.005 84.0656 112.804 84.4581C107.919 84.7079 104.46 84.0299 100.359 82.0675C93.941 78.9632 89.9117 73.3969 88.5924 65.7967C86.8095 55.4847 89.3412 46.3146 95.5813 40.5342C104.317 32.4345 118.901 33.5049 124.963 42.6751C126.318 44.6732 127.994 48.6696 127.994 49.8114C127.994 52.095 110.308 55.3063 97.6494 55.3063C93.6558 55.3063 93.4775 55.342 93.2635 56.0913C92.9783 57.1618 92.9783 62.0501 93.2635 63.4774L93.5131 64.5835H100.859C113.018 64.5835 122.681 63.0849 134.056 59.374C138.156 58.0538 140.224 56.6622 141.045 54.7354C141.722 53.0941 141.686 51.988 140.652 47.9559C139.583 43.7812 137.265 38.8928 134.733 35.5388C130.954 30.5791 124.571 26.4757 118.402 25.0127C114.801 24.1564 108.489 23.7996 104.995 24.2991Z" fill="#1D428A"/>
<path d="M154.773 30.8645C152.598 31.9349 150.815 33.0054 150.815 33.2908C150.815 33.5406 151.029 34.0402 151.278 34.397C151.742 35.0036 151.813 35.0036 152.883 34.4683C154.487 33.6477 154.88 33.7547 155.557 35.1463C156.377 36.859 156.377 36.8947 154.737 37.644C153.953 38.0008 153.311 38.3219 153.311 38.3933C153.311 38.7501 154.167 40.3201 154.38 40.3201C154.63 40.3201 162.296 36.7876 162.546 36.5379C162.689 36.3951 161.869 34.2542 161.619 34.2542C161.548 34.2542 160.834 34.5754 160.05 35.0036C159.23 35.3961 158.552 35.6815 158.481 35.6101C158.445 35.5388 158.053 34.8251 157.661 34.0402L156.912 32.5772L158.338 31.9349C159.123 31.5781 159.836 31.15 159.943 31.0072C160.121 30.6861 159.372 28.902 159.016 28.902C158.873 28.902 156.983 29.7941 154.773 30.8645Z" fill="#1D428A"/>
<path d="M158.838 41.3906C156.698 41.9615 154.915 42.4253 154.88 42.4253C154.844 42.461 155.201 43.9596 155.628 45.7437C156.235 48.4555 156.52 49.0621 157.055 49.1691C158.481 49.3475 158.659 48.848 158.124 46.5644C157.625 44.3164 157.661 43.8883 158.481 43.8883C158.802 43.8883 159.159 44.6376 159.444 46.0648C159.872 48.0987 159.907 48.2057 160.799 47.9916C161.298 47.8489 161.762 47.7062 161.833 47.5991C161.904 47.5278 161.797 46.5644 161.548 45.4582C161.298 44.3878 161.191 43.3887 161.298 43.2817C161.833 42.7465 162.51 43.6742 162.903 45.4582C163.295 47.2066 163.473 47.4564 164.186 47.4564C165.648 47.4564 165.648 46.9925 164.329 41.6403C163.901 40.0703 164.044 40.0703 158.838 41.3906Z" fill="#1D428A"/>
<path d="M158.838 75.6805C158.695 76.287 158.659 76.8223 158.731 76.8579C158.766 76.9293 160.121 77.3575 161.655 77.8213C164.686 78.7491 165.327 79.2843 164.935 80.7472C164.614 82.1031 163.402 82.2815 160.264 81.3181C158.802 80.89 157.483 80.6045 157.376 80.7115C157.269 80.8186 157.162 81.3538 157.126 81.889C157.055 82.8168 157.197 82.9238 159.729 83.7445C164.614 85.2788 166.861 84.244 167.146 80.319C167.289 78.4279 167.217 78.1068 166.433 77.3218C165.72 76.6082 160.371 74.5743 159.266 74.5743C159.159 74.5743 158.98 75.0739 158.838 75.6805Z" fill="#1D428A"/>
<path d="M155.415 86.0995C153.881 87.0986 152.954 88.954 152.954 90.8808C152.954 94.5203 157.697 96.8396 160.727 94.6987C161.869 93.9137 162.938 91.5944 162.938 89.9531C162.938 87.5624 160.371 85.2788 157.661 85.2788C157.09 85.2788 156.092 85.6356 155.415 86.0995ZM159.872 88.8826C160.371 89.4892 160.799 90.2028 160.799 90.4526C160.799 91.416 158.98 93.1287 158.018 93.1287C156.092 93.093 154.773 91.2019 155.45 89.5249C156.306 87.4554 158.41 87.1342 159.872 88.8826Z" fill="#1D428A"/>
<path d="M67.6614 94.7701C65.7359 96.233 64.167 97.5889 64.167 97.7673C64.167 97.9814 67.3048 102.263 68.3032 103.441C68.5172 103.655 69.8722 102.335 69.8722 101.942C69.8722 101.764 69.4086 101.014 68.8738 100.301C67.4118 98.4453 67.3405 98.2312 67.8397 97.803C68.2319 97.5175 68.5885 97.803 69.5156 99.0162C70.8349 100.765 71.1202 100.907 72.0473 100.051C72.6535 99.48 72.6178 99.4087 71.4768 97.8387C70.1218 96.0903 70.0148 95.7692 70.6566 95.5551C70.9062 95.448 71.7264 96.1617 72.4752 97.1251C73.224 98.0528 73.9728 98.8378 74.1154 98.8378C74.258 98.8378 74.6859 98.5166 75.0425 98.1241C75.6487 97.4462 75.613 97.3391 73.6162 94.7344C72.4752 93.2714 71.4411 92.0583 71.3341 92.0583C71.2272 92.0583 69.5513 93.2715 67.6614 94.7701Z" fill="#1D428A"/>
<path d="M75.1851 100.051C73.01 102.549 72.0116 104.226 72.0116 105.403C72.0116 107.937 74.7572 110.184 77.2176 109.756C78.1091 109.578 78.9648 108.864 80.6407 107.009C81.8887 105.653 82.9228 104.368 82.9941 104.19C83.0654 104.012 82.6732 103.583 82.1383 103.262C81.2113 102.62 81.1756 102.62 80.2842 103.69C77.0393 107.508 76.2549 108.008 75.0782 106.83C73.9371 105.689 74.258 104.975 77.9664 100.586C78.3943 100.051 78.3587 99.9082 77.4672 99.2659L76.4688 98.5523L75.1851 100.051Z" fill="#1D428A"/>
<path d="M141.722 101.657C140.01 102.691 139.333 103.69 139.155 105.368C138.941 107.223 139.583 108.65 141.187 110.042C143.861 112.29 149.032 110.149 149.032 106.759C149.032 106.01 146.999 103.12 146.464 103.12C146.037 103.12 143.327 105.225 143.327 105.546C143.327 105.689 143.576 106.081 143.826 106.438C144.325 107.08 144.396 107.08 145.252 106.509C146.108 105.938 146.179 105.938 146.429 106.509C146.571 106.973 146.357 107.401 145.68 108.008C144.432 109.078 143.933 109.043 142.578 107.83C140.724 106.152 141.294 103.833 143.719 103.298C144.289 103.155 144.753 102.834 144.753 102.584C144.753 102.335 144.86 101.871 144.967 101.55C145.288 100.729 143.113 100.8 141.722 101.657Z" fill="#1D428A"/>
<path d="M129.064 108.686C128.564 109.043 127.958 109.542 127.744 109.828C127.031 110.72 127.174 112.647 128.03 113.503C128.707 114.181 129.028 114.252 131.239 114.038C133.271 113.824 133.699 113.86 133.699 114.288C133.699 115.18 132.594 115.786 130.989 115.715C129.599 115.679 129.385 115.751 129.206 116.571C128.921 117.678 129.492 118.106 131.31 118.106C132.879 118.106 135.304 116.964 135.839 116.001C136.445 114.859 136.266 113.182 135.446 112.361C134.769 111.683 134.412 111.612 132.237 111.79C130.882 111.897 129.705 111.862 129.599 111.683C129.242 111.112 130.526 110.256 131.702 110.256C132.594 110.256 132.95 110.042 133.271 109.4C133.485 108.936 133.557 108.436 133.45 108.329C132.986 107.865 129.884 108.151 129.064 108.686Z" fill="#1D428A"/>
<path d="M93.4419 110.541C91.6234 111.433 90.8032 112.789 90.7676 114.823C90.7319 117.035 91.3381 118.177 93.0497 119.141C95.9736 120.782 99.2541 119.783 100.359 116.893C101.5 113.895 100.146 111.148 97.1146 110.292C95.2604 109.756 94.8682 109.792 93.4419 110.541ZM97.5782 113.182C98.6835 114.216 98.6479 115.751 97.5069 116.857C96.4015 117.999 95.0465 117.999 93.9411 116.857C91.4807 114.431 95.0465 110.791 97.5782 113.182Z" fill="#1D428A"/>
<path d="M120.114 111.79C117.796 113.36 117.511 117.035 119.579 119.426C120.256 120.211 120.756 120.389 122.503 120.532C124.286 120.639 124.785 120.532 125.855 119.818C127.317 118.819 127.566 118.106 126.568 117.499C125.997 117.107 125.676 117.142 124.714 117.749C123.18 118.677 122.431 118.641 121.397 117.571C120.256 116.464 120.256 115.109 121.433 113.931C122.182 113.182 122.574 113.039 123.715 113.217C124.892 113.36 125.141 113.253 125.534 112.504C126.14 111.362 125.569 110.969 123.145 110.969C121.825 110.969 120.969 111.184 120.114 111.79Z" fill="#1D428A"/>
<path d="M102.891 115.501C102.748 117.428 102.57 119.533 102.463 120.14C102.321 121.139 102.392 121.317 102.998 121.317C103.39 121.317 103.925 121.388 104.21 121.531C104.603 121.674 104.781 121.139 105.031 119.141L105.351 116.571L107.027 119.105C108.168 120.818 109.024 121.745 109.63 121.888C110.13 122.031 110.629 122.031 110.736 121.924C111.021 121.674 111.627 113.075 111.378 112.718C111.271 112.539 110.736 112.397 110.165 112.397H109.131L108.917 117.892L106.992 114.966C105.351 112.468 104.924 112.04 104.103 112.04H103.105L102.891 115.501Z" fill="#1D428A"/>
<path d="M114.337 112.29C113.446 112.432 113.339 112.575 113.517 113.396C113.624 113.931 113.802 116.001 113.945 117.999L114.159 121.674H116.655L116.441 119.604C116.334 118.498 116.156 116.322 116.013 114.787C115.906 113.289 115.692 112.076 115.549 112.076C115.442 112.111 114.872 112.218 114.337 112.29Z" fill="#1D428A"/>
<path fill-rule="evenodd" clip-rule="evenodd" d="M96.9007 1.21313C95.7953 1.42722 94.7969 1.71267 94.6543 1.81971C94.5473 1.96244 94.7969 4.06765 95.2248 6.56535C95.9023 10.2762 96.1162 11.0255 96.5798 10.9185C96.9007 10.8115 98.2557 10.5617 99.6107 10.3119C103.355 9.66965 104.781 7.77853 103.069 5.67332C102.606 5.06673 102.463 4.49583 102.57 3.56811C102.713 2.46198 102.606 2.14085 101.786 1.49858C100.716 0.642224 99.9673 0.606543 96.9007 1.21313ZM96.9884 2.71244L99.0937 2.33138C99.6751 2.22615 100.232 2.61245 100.337 3.1942C100.442 3.77595 100.056 4.33286 99.4745 4.43809L97.3692 4.81914L96.9884 2.71244ZM100.524 6.12653L97.7016 6.6374L98.0824 8.74411L100.905 8.23324C101.486 8.12801 101.872 7.57111 101.767 6.98936C101.662 6.40761 101.105 6.02131 100.524 6.12653Z" fill="#1D428A"/>
<path fill-rule="evenodd" clip-rule="evenodd" d="M114.979 7.13631C115.229 5.85177 115.621 3.88929 115.87 2.74748C116.071 1.75763 116.172 1.19683 116.506 0.940146C116.942 0.604652 117.777 0.788662 119.757 1.21318C122.61 1.85544 123.537 2.67612 123.537 4.70997C123.537 5.92314 123.323 6.31563 122.396 7.06494L121.29 7.99266L122.039 9.52697C122.431 10.3476 122.717 11.097 122.61 11.204C122.538 11.2754 121.968 11.2397 121.362 11.1683C120.435 11.0256 120.114 10.7045 119.436 9.24152C118.402 7.02926 117.475 6.88654 117.118 8.84902C116.904 10.1336 116.833 10.2049 115.835 10.0622C115.264 9.99083 114.729 9.81242 114.658 9.66969C114.551 9.52697 114.729 8.38516 114.979 7.13631ZM120.423 3.19264L118.326 2.76837L117.761 5.56627L119.858 5.99055C120.63 6.14676 121.383 5.64707 121.539 4.87445C121.695 4.10183 121.195 3.34886 120.423 3.19264Z" fill="#1D428A"/>
<path fill-rule="evenodd" clip-rule="evenodd" d="M159.586 70.3282C159.836 67.5094 160.157 66.4746 161.12 65.761C162.011 65.0831 164.507 65.1901 165.434 65.9394C166.076 66.4746 166.29 67.0812 166.433 68.7226C166.611 70.9348 166.896 71.363 168.216 71.363C168.715 71.363 169 71.5771 169 71.9696C168.964 73.5039 168.608 73.6109 163.865 73.3255L159.337 73.0757L159.586 70.3282ZM163.311 67.0812C162.524 67.0812 161.885 67.7202 161.885 68.5085V70.6494H164.738V68.5085C164.738 67.7202 164.099 67.0812 163.311 67.0812Z" fill="#1D428A"/>
<path fill-rule="evenodd" clip-rule="evenodd" d="M80.712 113.681C80.0702 113.182 80.1058 113.003 82.174 109.043C83.3507 106.759 84.3847 104.904 84.4561 104.904C84.8126 104.904 88.6637 107.187 89.4125 107.865C91.0527 109.364 89.9117 113.11 87.8079 113.11C86.9521 113.11 86.9164 113.182 87.1304 114.431C87.273 115.18 87.4513 116.072 87.5583 116.393C87.8079 117.249 86.9521 117.214 85.918 116.393C85.4545 116.001 85.0266 115.109 84.8126 114.002C84.3847 111.719 83.7786 111.362 82.9584 112.932C82.281 114.288 81.7817 114.466 80.712 113.681ZM87.3661 108.389L85.468 107.401L84.1518 109.934L86.0499 110.922C86.7488 111.285 87.6099 111.013 87.9734 110.314C88.3368 109.615 88.0649 108.753 87.3661 108.389Z" fill="#1D428A"/>
<path fill-rule="evenodd" clip-rule="evenodd" d="M145.466 98.9091C145.466 98.7664 146.393 97.7673 147.499 96.6255C149.317 94.7701 149.709 94.556 150.993 94.556C152.918 94.556 154.167 95.8048 154.131 97.5889L154.095 98.8378H156.021C157.09 98.8378 157.946 98.9805 157.946 99.1232C157.946 99.3016 157.554 99.8012 157.055 100.265C156.306 100.979 155.949 101.05 154.523 100.836C152.063 100.515 151.528 101.121 152.954 102.584L154.024 103.69L152.277 105.367L148.854 102.227C146.999 100.515 145.466 99.0162 145.466 98.9091ZM151.656 96.7279C151.067 96.2047 150.166 96.2584 149.643 96.8479L148.468 98.1724L150.691 100.147L151.866 98.8222C152.389 98.2327 152.335 97.3306 151.746 96.8074L151.656 96.7279Z" fill="#1D428A"/>
</svg>
