<svg width="120" height="24" viewBox="0 0 120 24" fill="none" xmlns="http://www.w3.org/2000/svg">
<path d="M78.6344 23.3663C77.3962 23.3524 76.2158 22.4654 75.9387 21.1172C75.8451 20.6622 75.856 20.239 75.856 19.703V4.66675C75.856 3.82942 76.0037 3.10762 76.2939 2.49606C76.5891 1.89012 77.0026 1.42185 77.5269 1.10773C78.0528 0.792457 78.6925 0.633789 79.4362 0.633789H85.4461C86.8471 0.633789 88.0869 0.867389 89.1592 1.33365C90.2324 1.79984 91.1152 2.48191 91.8023 3.37234C92.4879 4.25869 92.971 5.32921 93.2339 6.5896C93.9249 9.89983 92.1485 13.7627 88.6861 14.4619L91.6319 17.4055C91.8344 17.6077 92.9832 18.7472 93.4005 19.6448C93.5931 20.059 93.5954 20.6451 93.4693 21.2007C93.1422 22.6399 91.9964 23.3663 90.6871 23.3663C90.1789 23.3663 89.5001 23.2221 88.904 22.6913C86.6637 20.6937 82.9315 16.9391 81.3608 15.3633V19.7965C81.3608 20.122 81.3401 20.4618 81.2905 20.791C81.2339 21.1727 81.1384 21.5398 80.9931 21.8543C80.6362 22.6589 79.8504 23.3813 78.6344 23.3663ZM5.51776 4.5148C5.95881 3.27895 6.61955 2.32763 7.4722 1.65045C8.32479 0.972952 9.30457 0.633789 10.4106 0.633789C11.5165 0.633789 12.496 0.967458 13.349 1.63489C14.2019 2.30238 14.8561 3.26197 15.3031 4.5148L20.1396 18.0674C20.4005 18.7981 20.7478 19.5609 20.805 20.0696C21.1546 23.1688 18.0664 24.1917 16.1956 22.6725C15.6519 22.2309 15.2873 21.5931 14.9863 20.8091L14.5376 19.6399H6.17203L5.69525 20.8091C5.38674 21.5662 5.0246 22.2059 4.47214 22.657C3.69942 23.2882 2.61501 23.5342 1.69485 23.1787C0.717935 22.8009 0 21.8107 0 20.4671C0 19.4918 0.420119 18.7996 0.681519 18.0674L5.51776 4.5148ZM10.1029 7.91934L8.18958 13.2968C8.17154 13.3475 8.13515 13.4374 8.09869 13.5443C8.05856 13.6624 8.13057 13.8144 8.33014 13.8144C9.69394 13.8144 10.9642 13.8146 12.3282 13.8146C12.5874 13.8146 12.8184 13.7757 12.6962 13.4544L12.6345 13.2924L10.7109 8.05496L10.6289 7.84064C10.6261 7.83295 10.6224 7.82505 10.6198 7.81866C10.5229 7.59218 10.4502 7.58119 10.383 7.58029C10.2772 7.57848 10.2027 7.63868 10.1029 7.91934ZM25.9439 23.3663C24.9018 23.3663 24.0213 22.9769 23.3161 22.2032C22.6109 21.4237 22.2609 20.4305 22.2609 19.2177C22.2609 13.816 22.2609 10.0767 22.2609 4.67496C22.2609 3.39139 22.4416 2.23375 23.0938 1.52454C23.6192 0.953406 24.2364 0.661433 24.9203 0.635803C25.9221 0.598283 26.9901 1.13589 27.4848 2.23373C27.7938 2.91904 27.8051 3.98079 27.8051 4.70795V17.1963H32.3802C32.7542 17.1963 34.0425 17.1964 34.9875 17.2842C36.6065 17.4344 37.7839 18.9308 37.5661 20.7149C37.4623 21.5642 37.0507 22.4629 36.1137 23.0117C35.7136 23.2461 35.2716 23.3663 34.7828 23.3663H25.9439ZM39.0409 18.5671C39.1143 17.876 39.3628 17.2935 39.7821 16.8171C40.2896 16.247 40.9254 15.9587 41.6756 15.9587C42.2042 15.9587 42.7114 16.0393 43.19 16.2003C43.6617 16.3612 44.2333 16.5956 44.9049 16.911C45.5692 17.2191 46.1409 17.4538 46.6124 17.6078C47.0911 17.7688 47.5983 17.8427 48.1413 17.8427C49.0213 17.7969 49.5681 17.63 49.848 17.2617C49.9793 17.0889 50.0775 16.8397 50.0775 16.5956C50.0775 16.1664 49.9131 15.8316 49.5988 15.6035C49.2773 15.369 48.5127 15.0339 47.3197 14.5981C46.1265 14.1557 45.2978 13.8471 44.8476 13.6661C43.583 13.17 42.5829 12.6942 41.8399 12.2317C41.1039 11.7624 40.5394 11.1859 40.1537 10.4886C39.7679 9.79131 39.575 8.89302 39.575 7.79373C39.575 6.57351 39.9252 5.4136 40.6396 4.30756C41.3541 3.2081 42.3685 2.31667 43.6974 1.64627C45.0262 0.969361 46.541 0.633972 48.2342 0.633972C49.2415 0.633972 50.3418 0.795058 51.5421 1.11014C52.7422 1.42516 53.771 1.92103 54.6215 2.59814C55.4788 3.26873 55.9075 4.1066 55.9075 5.0986C55.9075 5.88995 55.643 6.54001 55.1288 7.0361C54.6142 7.53891 53.9568 7.78683 53.1639 7.78683C52.8709 7.78683 52.4639 7.69307 51.9493 7.4921C51.4351 7.29765 50.9561 7.10985 50.5205 6.92883C50.0846 6.74116 49.6346 6.58043 49.1629 6.43951C48.6913 6.29873 48.2412 6.23151 47.8056 6.23151C47.2982 6.23151 46.8765 6.33896 46.5482 6.56686C45.8836 7.01814 45.8807 7.81589 46.5213 8.3345C46.7823 8.5454 47.1511 8.75353 47.6269 8.96008C48.7772 9.38255 50.0703 9.87183 51.4921 10.4148C52.9208 10.9645 54.1141 11.702 55.0644 12.627C56.0217 13.5521 56.5003 14.799 56.5003 16.3611C56.5003 17.7688 56.1073 19.009 55.3215 20.0682C54.5356 21.134 53.4926 21.9521 52.1778 22.5153C50.8705 23.0849 49.4415 23.3663 47.8911 23.3663C45.0978 23.3663 42.7829 22.8435 40.9396 21.7979C39.757 21.0725 38.8746 20.138 39.0409 18.5671ZM58.2147 20.8745C58.0257 20.3993 57.9287 19.9129 57.9287 19.4157V4.06192C57.9287 3.37913 57.9637 2.89579 58.1672 2.41403C58.4431 1.76068 58.9905 1.18864 59.812 0.866974C60.2069 0.712504 60.635 0.633789 61.0908 0.633789H71.1858C72.936 0.633789 74.1791 1.7986 74.3933 3.24472C74.6176 4.75555 73.7207 6.55118 71.2237 6.55118H63.5123L63.5188 9.03635L71.3003 9.03928C71.7294 9.0395 72.1467 9.1718 72.5722 9.3212C73.5187 9.65345 74.4108 10.696 74.4108 11.8742C74.4108 12.7583 74.217 13.3494 73.5972 14.0122C72.96 14.6936 72.144 14.9685 71.3087 14.968L63.358 14.9651L63.3416 17.4525H71.2828C73.1335 17.4525 74.1858 18.6438 74.3797 19.9565C74.618 21.5693 73.581 23.3663 71.3746 23.3663H61.4583C60.8077 23.3663 60.1762 23.1397 59.5835 22.6924C58.9909 22.2448 58.5314 21.6426 58.2147 20.8745ZM81.3638 9.48065H86.7012C88.3017 9.48065 88.3575 6.55829 86.7547 6.55829H81.3913L81.3638 9.48065Z" fill="#00A153"/>
<path fill-rule="evenodd" clip-rule="evenodd" d="M95.9901 21.2395C95.9901 20.6901 96.1628 20.2212 96.5075 19.8362C96.8522 19.4477 97.2741 19.2553 97.7725 19.2553C98.2838 19.2553 98.7088 19.4442 99.0474 19.8258C99.386 20.2036 99.5549 20.6761 99.5549 21.2395C99.5549 21.7889 99.3829 22.2543 99.0375 22.6324C98.6927 23.0138 98.2708 23.2026 97.7725 23.2026C97.2741 23.2026 96.8522 23.0138 96.5075 22.6324C96.1628 22.2543 95.9901 21.7889 95.9901 21.2395ZM104.232 15.3079L106.849 12.3088C107.386 11.6895 107.913 11.3814 108.434 11.3814C108.778 11.3814 109.082 11.5042 109.341 11.7491C109.602 11.9975 109.734 12.3089 109.734 12.6869C109.734 13.2504 109.472 13.7961 108.948 14.3316L106.858 16.4591L109.753 20.1898C110.162 20.7217 110.366 21.278 110.366 21.8553C110.366 22.2614 110.216 22.5868 109.916 22.8352C109.618 23.0802 109.284 23.2026 108.913 23.2026C108.302 23.2026 107.769 22.8667 107.309 22.1913L104.232 17.6386V20.7145C104.232 22.3732 103.712 23.2026 102.671 23.2026C101.616 23.2026 101.089 22.3769 101.089 20.7216V9.07547C101.089 7.4203 101.616 6.59433 102.671 6.59433C103.712 6.59433 104.232 7.4203 104.232 9.07187V15.3079ZM119.968 21.481C119.968 22.5167 119.316 23.0346 118.013 23.0346H112.359C111.272 23.0346 110.729 22.6848 110.729 21.9848C110.729 21.5509 110.883 21.117 111.189 20.683L115.445 14.657H112.78C111.476 14.657 110.825 14.139 110.825 13.1033C110.825 12.0814 111.483 11.5706 112.8 11.5706H117.764C118.428 11.5706 118.92 11.6299 119.24 11.7491C119.559 11.8679 119.719 12.1514 119.719 12.5993C119.719 13.0053 119.508 13.5057 119.089 14.0938L114.975 19.8853H118.035C119.323 19.8853 119.968 20.4171 119.968 21.481Z" fill="#F37421"/>
</svg>
