<svg width="97" height="32" viewBox="0 0 97 32" fill="none" xmlns="http://www.w3.org/2000/svg">
<path d="M0 0H97V32H0V0Z" fill="#E22319"/>
<path d="M40.5602 11.4156C39.1012 11.4156 37.5512 12.0448 36.5482 13.3932V11.6854H33.1745V23.9102H36.5482V16.8989C36.5482 15.6405 37.5512 14.2922 39.3749 14.2922C40.7426 14.2922 42.2016 15.2809 42.2016 16.8989V23.8203H45.5752V16.2697C45.6663 13.4831 43.5691 11.4156 40.5602 11.4156ZM69.8291 11.5955L66.7291 19.955L63.6288 11.5955H59.7993L64.9054 23.8203H68.6437L73.6586 11.5955H69.8291ZM29.5273 20.0449C28.0684 21.1236 27.2477 21.3035 25.9712 21.3035C24.7859 21.3035 23.874 20.9439 23.2358 20.3147L31.8979 16.7192C31.7156 15.3709 31.1684 14.2022 30.4391 13.3034C29.2537 11.9551 27.6124 11.3259 25.5154 11.3259C21.777 11.3259 18.9503 14.0225 18.9503 17.618C18.9503 21.3035 21.777 23.9104 25.88 23.9104C28.1595 23.9104 30.5302 22.8317 31.6244 21.5731L29.5273 20.0449ZM22.9623 15.2809C23.5094 14.4719 24.421 14.0225 25.6065 14.0225C26.7917 14.0225 27.7947 14.7417 28.2507 15.7304L22.324 18.1575C22.1417 16.9888 22.5065 16.0001 22.9623 15.2809ZM18.6768 20.7641H10.9265V8H7.46154V23.8203H18.6768V20.7641ZM79.7679 24C76.0296 24 73.1118 21.3035 73.1118 17.7078C73.1118 14.2021 76.0295 11.4156 79.7679 11.4156C83.5062 11.4156 86.4241 14.1123 86.4241 17.7078C86.5151 21.3035 83.5974 24 79.7679 24ZM79.7679 14.2922C77.853 14.2922 76.4853 15.7304 76.4853 17.708C76.4853 19.5956 77.9442 21.1238 79.7679 21.1238C81.6827 21.1238 83.0505 19.6855 83.0505 17.708C83.1414 15.8202 81.6825 14.2922 79.7679 14.2922ZM53.599 24C49.8607 24 46.9428 21.3035 46.9428 17.7078C46.9428 14.2021 49.8607 11.4156 53.599 11.4156C57.3374 11.4156 60.2551 14.1123 60.2551 17.7078C60.2551 21.3033 57.3375 24 53.599 24ZM53.599 14.2922C51.6842 14.2922 50.3163 15.7304 50.3163 17.708C50.3163 19.5956 51.7753 21.1238 53.599 21.1238C55.5139 21.1238 56.8816 19.6855 56.8816 17.708C56.9726 15.8202 55.5139 14.2922 53.599 14.2922ZM86.9711 22.382H86.4241V22.1124H87.883V22.382H87.3358V23.8203H86.9711V22.382ZM88.2478 22.1126H88.6125L89.1595 22.9216L89.7067 22.1126H90.0714V23.9104H89.7067V22.6518L89.1595 23.4609L88.6125 22.6518V23.9104H88.2478V22.1126Z" fill="white"/>
</svg>
