<svg width="202" height="32" viewBox="0 0 202 32" fill="none" xmlns="http://www.w3.org/2000/svg">
<path d="M167.189 24.4017L166.797 0.943815H173.94V30.5126H163.669L156.537 6.24828H156.382L156.78 30.5126H149.677V0.943815H160.398L167.033 24.4017H167.189Z" fill="#034EA2"/>
<path d="M37.3038 3.71551L33.3512 30.8232H25.5558L30.9047 0.943815H43.7432L49.0748 30.8232H41.3082L37.4653 3.71551H37.3038Z" fill="#034EA2"/>
<path d="M70.9608 23.7865L74.5267 0.943815H86.2978L86.9209 30.8232H79.7083L79.5179 3.96043H79.3679L74.544 30.8232H67.2218L62.3922 3.96043H62.2364L62.0575 30.8232H54.8276L55.4681 0.943815H67.2449L70.805 23.7865H70.9608Z" fill="#034EA2"/>
<path d="M13.404 22.3946C13.6867 23.1174 13.6002 24.0493 13.4674 24.6108C13.2251 25.6024 12.5731 26.6179 10.6574 26.6179C8.84558 26.6179 7.74926 25.5426 7.74926 23.9059V21.0147H0.00577223L0 23.3265C0 29.9869 5.06616 32 10.4958 32C15.7178 32 20.0165 30.1542 20.6974 25.1723C21.0494 22.5917 20.7839 20.9012 20.6685 20.2621C19.451 14.0078 8.49361 12.1381 7.68002 8.64364C7.54154 8.04629 7.58193 7.40713 7.65117 7.06664C7.85312 6.11686 8.48207 5.06552 10.2881 5.06552C11.973 5.06552 12.9712 6.14672 12.9712 7.77749C12.9712 8.32705 12.9712 9.6233 12.9712 9.6233H20.1665V7.5266C20.1665 1.01549 14.5234 0 10.4381 0C5.30273 0 1.10786 1.75621 0.340438 6.61863C0.132714 7.96267 0.103862 9.15736 0.403908 10.6567C1.66756 16.7556 11.9153 18.5238 13.404 22.3946Z" fill="#034EA2"/>
<path d="M107.255 22.3409C107.538 23.0577 107.445 23.9657 107.318 24.5272C107.082 25.5188 106.435 26.5163 104.531 26.5163C102.748 26.5163 101.658 25.4411 101.658 23.8402L101.652 20.9729H93.9893L93.9778 23.2548C93.9778 29.8495 98.9978 31.8387 104.37 31.8387C109.534 31.8387 113.792 30.0168 114.467 25.0827C114.819 22.5201 114.571 20.8535 114.444 20.2262C113.233 14.0317 102.391 12.18 101.583 8.71533C101.444 8.11798 101.485 7.49076 101.554 7.16819C101.762 6.20646 102.379 5.185 104.168 5.185C105.841 5.185 106.816 6.23633 106.816 7.86112C106.816 8.40471 106.816 9.68901 106.816 9.68901H113.96V7.61023C113.96 1.17081 108.363 0.161286 104.312 0.161286C99.2343 0.161286 95.0741 1.8936 94.324 6.72615C94.1163 8.05227 94.0932 9.22307 94.3932 10.7164C95.6338 16.7556 105.783 18.5119 107.255 22.3409Z" fill="#034EA2"/>
<path d="M131.495 26.355C133.497 26.355 134.12 24.9214 134.259 24.1867C134.317 23.8641 134.334 23.434 134.328 23.0457V0.931868H141.627V22.3648C141.645 22.9143 141.593 24.0433 141.564 24.3241C141.05 29.9033 136.792 31.7133 131.489 31.7133C126.181 31.7133 121.917 29.9033 121.409 24.3241C121.386 24.0433 121.334 22.9083 121.345 22.3648V0.931868H128.639V23.0398C128.639 23.428 128.65 23.8641 128.708 24.1807C128.87 24.9154 129.476 26.355 131.495 26.355Z" fill="#034EA2"/>
<path d="M191.706 26.0385C193.795 26.0385 194.528 24.6705 194.66 23.8761C194.712 23.5356 194.73 23.1174 194.724 22.7411V18.4043H191.764V14.0437H202V22.0661C201.994 22.6276 201.983 23.0398 201.896 24.0373C201.417 29.4732 196.859 31.4146 191.747 31.4146C186.623 31.4146 182.076 29.4732 181.585 24.0373C181.505 23.0398 181.493 22.6276 181.481 22.0661L181.487 9.48591C181.487 8.95427 181.551 8.01643 181.608 7.51466C182.249 1.92945 186.623 0.131422 191.747 0.131422C196.865 0.131422 201.348 1.9175 201.879 7.51466C201.971 8.46444 201.942 9.48591 201.942 9.48591V10.4835H194.666V8.8109C194.672 8.81688 194.655 8.10006 194.574 7.67594C194.453 7.01288 193.899 5.49562 191.695 5.49562C189.589 5.49562 188.977 6.92925 188.821 7.67594C188.735 8.07019 188.7 8.60183 188.7 9.08569V22.753C188.694 23.1294 188.717 23.5475 188.775 23.888C188.89 24.6705 189.617 26.0385 191.706 26.0385Z" fill="#034EA2"/>
</svg>
